<svg width="40" height="40" viewBox="0 0 40 40" fill="none" xmlns="http://www.w3.org/2000/svg">
<path d="M29.5 31.75V11.5C29.5 10.2591 28.4909 9.25 27.25 9.25H13.75C12.5091 9.25 11.5 10.2591 11.5 11.5V31.75L20.5 26.6065L29.5 31.75ZM13.75 18.25V11.5H27.25V27.8721L20.5 24.0156L13.75 27.8721V18.25Z" fill="#26274B"/>
<path d="M24.3352 17.701C24.7413 17.2825 24.9933 16.702 24.9933 16.063C24.9933 15.424 24.7425 14.8446 24.3352 14.425C24.1296 14.2109 23.883 14.0405 23.6101 13.9239C23.3371 13.8074 23.0435 13.7471 22.7467 13.7466C22.7467 13.7466 21.6262 13.7432 20.5001 14.9042C19.374 13.7432 18.2535 13.7466 18.2535 13.7466C17.6325 13.7466 17.0711 14.0053 16.665 14.425C16.2577 14.8446 16.0068 15.4228 16.0068 16.063C16.0068 16.7031 16.2577 17.2825 16.665 17.701L20.5001 21.8533L24.3352 17.701V17.701Z" fill="#26274B"/>
</svg>
